<?xml version="1.0" encoding="utf-8"?>
<!-- Generator: Adobe Illustrator 25.4.1, SVG Export Plug-In . SVG Version: 6.00 Build 0)  -->
<svg version="1.1" id="Calque_1" xmlns="http://www.w3.org/2000/svg" xmlns:xlink="http://www.w3.org/1999/xlink" x="0px" y="0px"
	 width="24px" height="24px" viewBox="0 0 24 24" style="enable-background:new 0 0 24 24;" xml:space="preserve">
<path d="M23.7,11.2c-0.4-0.4-1.1-0.4-1.5,0l-9,9V1.1C13.1,0.5,12.6,0,12,0c-0.6,0-1.1,0.5-1.1,1.1v19.2l-9-9c-0.4-0.4-1.1-0.4-1.5,0
	c-0.4,0.4-0.4,1.1,0,1.5l10.9,10.9c0.1,0.1,0.1,0.1,0.2,0.1c0.1,0,0.1,0.1,0.2,0.1C11.7,24,11.9,24,12,24c0.1,0,0.3,0,0.4-0.1
	c0.1,0,0.1-0.1,0.2-0.1c0.1,0,0.1-0.1,0.2-0.1l10.9-10.9C24.1,12.3,24.1,11.7,23.7,11.2z"/>
</svg>
