<?xml version="1.0" encoding="utf-8"?>
<!-- Generator: Adobe Illustrator 25.4.1, SVG Export Plug-In . SVG Version: 6.00 Build 0)  -->
<svg version="1.1" id="Calque_1" xmlns="http://www.w3.org/2000/svg" xmlns:xlink="http://www.w3.org/1999/xlink" x="0px" y="0px"
	 width="24px" height="24px" viewBox="0 0 24 24" style="enable-background:new 0 0 24 24;" xml:space="preserve">
<path d="M23.7,11.2c-0.5-0.5-1.2-0.5-1.6,0L13.2,20V1.2C13.2,0.5,12.6,0,12,0c-0.6,0-1.2,0.5-1.2,1.2V20L2,11.2
	c-0.5-0.5-1.2-0.5-1.6,0s-0.5,1.2,0,1.6l10.8,10.8c0,0,0,0,0,0c0.1,0.1,0.2,0.2,0.3,0.2C11.7,24,11.8,24,12,24c0,0,0,0,0,0
	c0,0,0,0,0,0c0,0,0,0,0,0c0.1,0,0.3,0,0.4-0.1c0.1-0.1,0.3-0.1,0.4-0.3l10.8-10.8C24.1,12.4,24.1,11.6,23.7,11.2z"/>
</svg>
