<?xml version="1.0" encoding="utf-8"?>
<!-- Generator: Adobe Illustrator 25.4.1, SVG Export Plug-In . SVG Version: 6.00 Build 0)  -->
<svg version="1.1" id="Calque_1" xmlns="http://www.w3.org/2000/svg" xmlns:xlink="http://www.w3.org/1999/xlink" x="0px" y="0px"
	 width="24px" height="16px" viewBox="0 0 24 16" style="enable-background:new 0 0 24 16;" xml:space="preserve">
<g>
	<path d="M22.8,9.1H1.2C0.5,9.1,0,8.6,0,8s0.5-1.1,1.2-1.1h21.6C23.5,6.9,24,7.4,24,8S23.5,9.1,22.8,9.1z"/>
</g>
<g>
	<path d="M22.8,2.3H1.2C0.5,2.3,0,1.8,0,1.1S0.5,0,1.2,0h21.6C23.5,0,24,0.5,24,1.1S23.5,2.3,22.8,2.3z"/>
</g>
<g>
	<path d="M22.8,16H1.2C0.5,16,0,15.5,0,14.9c0-0.6,0.5-1.1,1.2-1.1h21.6c0.7,0,1.2,0.5,1.2,1.1C24,15.5,23.5,16,22.8,16z"/>
</g>
</svg>
