<svg width="39" height="40" viewBox="0 0 39 40" fill="none" xmlns="http://www.w3.org/2000/svg">
<path d="M21.6899 39.9745C23.5139 40.0844 25.2753 39.8348 26.9951 39.3057C31.6644 37.8681 35.3749 35.2426 37.7513 31.0597C38.3558 30.0016 38.1369 28.9234 37.3031 28.3244C36.438 27.7055 35.4166 27.8452 34.4577 28.7337C34.2492 28.9234 34.0616 29.1231 33.874 29.3227C32.1751 31.1995 30.0385 32.4274 27.6204 33.236C22.8573 34.8333 18.0316 33.6354 14.8109 29.9616C11.1839 25.8087 9.72468 20.927 10.2041 15.6061C10.6315 10.8542 12.8202 6.92093 17.6772 5.08406C22.7635 3.15735 25.8798 5.10403 26.0674 10.1155C26.2029 13.8092 30.3407 16.0354 33.8011 14.3782C36.5214 13.0704 37.522 10.0656 36.3025 6.90096C35.2603 4.16562 33.0611 2.5384 30.3616 1.55009C24.7542 -0.486441 19.0738 -0.52637 13.4456 1.49019C-0.385317 6.44174 -3.35578 21.7456 3.65868 31.4491C7.98409 37.4289 14.3419 39.7849 21.7212 39.9745H21.6899Z" fill="#222222"/>
</svg>
