<?xml version="1.0" encoding="utf-8"?>
<!-- Generator: Adobe Illustrator 25.4.1, SVG Export Plug-In . SVG Version: 6.00 Build 0)  -->
<svg version="1.1" id="Calque_1" xmlns="http://www.w3.org/2000/svg" xmlns:xlink="http://www.w3.org/1999/xlink" x="0px" y="0px"
	 width="24px" height="24px" viewBox="0 0 24 24" style="enable-background:new 0 0 24 24;" xml:space="preserve">
<path d="M14.4,12l9.1-9.1c0.7-0.7,0.7-1.8,0-2.4c-0.7-0.7-1.8-0.7-2.4,0L12,9.6L2.9,0.5c-0.7-0.7-1.8-0.7-2.4,0s-0.7,1.8,0,2.4
	L9.6,12l-9.1,9.1c-0.7,0.7-0.7,1.8,0,2.4C0.8,23.8,1.3,24,1.7,24s0.9-0.2,1.2-0.5l9.1-9.1l9.1,9.1c0.3,0.3,0.8,0.5,1.2,0.5
	c0.4,0,0.9-0.2,1.2-0.5c0.7-0.7,0.7-1.8,0-2.4L14.4,12z"/>
</svg>
