<svg width="116" height="76" viewBox="0 0 116 76" fill="none" xmlns="http://www.w3.org/2000/svg">
<path d="M0 53.8461C0 53.8461 11.789 22.1924 25.5582 17.3493C25.5582 17.3493 37.6243 7.66662 52.0262 12.772C52.0262 12.772 56.267 3.64289 64.3693 2.24737C64.3693 2.24737 81.4203 -6.30557 113.486 9.92219C113.486 9.92219 126.384 35.1841 83.9496 64.4363C83.9502 64.4363 27.0284 96.4876 0 53.8461Z" fill="#FC584B"/>
<path d="M52.0116 25.4759L43.1053 46.0582L37.1472 41.7217C31.823 48.657 27.417 54.8627 27.417 54.8627C41.8664 60.0959 58.2435 57.7742 69.0599 53.3977C79.8763 49.0211 89.0993 31.4521 90.725 26.2952C92.3506 21.1384 86.4174 14.0544 86.4174 14.0544C86.4174 14.0544 77.1248 16.9263 68.4622 19.4149L72.5255 30.9743L55.2664 22.9093L53.043 23.6931" fill="#222222"/>
<path d="M58.0699 37.033L52.4719 24.4739L36.5829 42.1831L37.5583 42.8939L42.8701 46.066L58.0699 37.033Z" fill="white"/>
<path d="M74.1185 30.2069L70.5975 19.3118L69.1522 19.4249L55.2649 22.9098L53.4916 23.5318L53.9315 24.2572L59.7783 36.6298L74.1185 30.2069Z" fill="white"/>
</svg>
